Coordinates
version=1
nRows=12
nColumns=33
inDegrees=yes

Units are S.I. units (second, meters, Newtons, ...)
Angles are in degrees.

endheader
time	ground_thorax_rot_x	ground_thorax_rot_y	ground_thorax_rot_z	ground_thorax_tx	ground_thorax_ty	ground_thorax_tz	clav_prot_r	clav_elev_r	scapula_abduction_r	scapula_elevation_r	scapula_upward_rot_r	scapula_winging_r	shoulder_elv_r	plane_of_elev_r	axial_rot_r	elbow_flexion_r	pro_sup_r	wrist_flex_r	wrist_dev_r	clav_prot_l	clav_elev_l	scapula_abduction_l	scapula_elevation_l	scapula_upward_rot_l	scapula_winging_l	shoulder_elv_l	plane_of_elev_l	axial_rot_l	elbow_flexion_l	pro_sup_l	wrist_flex_l	wrist_dev_l
      6.08000000	     38.50940584	      5.66823502	      8.88812941	    -69.35382817	    769.05183503	     11.88503185	     17.07712469	     38.56846366	     45.00000000	     39.68884211	    -25.08085259	  -2961.89638681	  -4074.98795031	    145.32192683	    179.99999979	   1445.66608902	     47.61315046	     20.09983095	     13.49383501	      4.47370664	    -45.00000000	    -45.00000000	     45.00000000	    -26.74699396	    803.53175567	  -2978.27337711	    134.57384815	   -179.99999979	    726.76840551	   -319.67207627	      8.88216284	    -19.93338846
      6.09000000	     38.58576140	      5.75681862	      8.98250651	    -69.61829496	    769.04910670	     11.85455824	     17.31058687	     38.65214725	     45.00000000	     39.82998145	    -25.36729903	  -2961.99869153	  -4075.09877176	    145.12864194	    179.99999979	   1445.75100181	     48.18693006	     20.34145712	     13.52245387	      4.78588663	    -45.00000000	    -45.00000000	     45.00000000	    -27.04568324	    803.66890313	  -2978.31592241	    134.37168168	   -179.99999979	    726.60833444	   -319.89489739	      8.64464892	    -20.20272003
      6.10000000	     38.46711160	      5.87871779	      9.10225880	    -69.97315707	    769.03311872	     11.81479890	     17.17824754	     38.57395265	     45.00000000	     39.62785372	    -25.46773073	  -2961.74139371	  -4074.84906715	    145.43650229	    179.99999979	   1445.98856453	     48.61848320	     20.25648466	     13.21571252	      4.66872305	    -45.00000000	    -45.00000000	     45.00000000	    -27.20946989	    803.43761193	  -2978.26476374	    134.70202688	   -179.99999979	    726.95261696	   -320.02105956	      8.93723171	    -19.94918618
      6.11000000	     38.47219682	      5.90317307	      9.05221980	    -70.40641566	    769.00099000	     11.76634502	     17.31912267	     38.64774903	     45.00000000	     39.64752521	    -25.55572006	  -2961.99971101	  -4074.94394108	    145.04251272	    179.99999979	   1445.86189603	     49.09211818	     20.49935223	     13.38128562	      4.80017736	    -45.00000000	    -45.00000000	     45.00000000	    -27.18127361	    803.71209527	  -2978.34256904	    134.35964025	   -179.99999979	    726.71072823	   -320.21867407	      8.71371854	    -20.19709094
      6.12000000	     38.53132500	      5.93232904	      9.02330120	    -70.91551261	    768.95350454	     11.71003462	     17.21078622	     38.42387196	     45.00000000	     39.83711207	    -25.60996257	  -2961.71883775	  -4074.95295306	    145.31242659	    179.99999979	   1446.06965828	     49.41778656	     20.46786555	     13.15465621	      4.73292137	    -45.00000000	    -45.00000000	     45.00000000	    -27.33210093	    803.45231614	  -2978.30053062	    134.56309662	   -179.99999979	    726.80058654	   -320.30306093	      8.97959790	    -20.01367836
      6.13000000	     38.38969130	      5.96608895	      9.07880697	    -71.49373102	    768.89262725	     11.64755914	     17.31670054	     38.60267683	     45.00000000	     39.63203086	    -25.78236196	  -2962.06748171	  -4075.01513746	    144.91944901	    179.99999979	   1446.02711650	     49.74577879	     20.70053691	     13.32831424	      4.83509758	    -45.00000000	    -45.00000000	     45.00000000	    -27.28468608	    803.84527886	  -2978.34634469	    134.27207715	   -179.99999979	    726.60483547	   -320.47494385	      8.79104765	    -20.17325372
      6.14000000	     38.44617951	      6.02303618	      9.08589155	    -72.13608483	    768.82122887	     11.58060126	     17.20328821	     38.34989517	     45.00000000	     39.82689876	    -25.84134990	  -2961.63013666	  -4074.93152757	    145.37501473	    179.99999979	   1446.29972734	     49.96424913	     20.61060960	     13.02963313	      4.77000008	    -45.00000000	    -45.00000000	     45.00000000	    -27.54180183	    803.47931038	  -2978.28299964	    134.64850859	   -179.99999979	    726.83874548	   -320.57566540	      9.04473547	    -20.06814582
      6.15000000	     38.31249086	      6.07964229	      9.13418644	    -72.83769827	    768.74254745	     11.51108157	     17.34338431	     38.57220349	     45.00000000	     39.64313391	    -26.08533706	  -2962.15759591	  -4075.05600568	    144.77032988	    179.99999979	   1446.14292260	     50.22246329	     20.86342138	     13.31542207	      4.90681707	    -45.00000000	    -45.00000000	     45.00000000	    -27.46266849	    804.06071650	  -2978.38727023	    134.18958917	   -179.99999979	    726.55822370	   -320.74119805	      8.86222086	    -20.14270889
      6.16000000	     38.36385290	      6.12632994	      9.20162006	    -73.58713934	    768.66131372	     11.44114108	     17.19377626	     38.27565210	     45.00000000	     39.84173553	    -26.15548126	  -2961.53300005	  -4074.86893057	    145.44584722	    179.99999979	   1446.46712330	     50.32928973	     20.72159677	     12.94945934	      4.82079426	    -45.00000000	    -45.00000000	     45.00000000	    -27.82091543	    803.53054856	  -2978.26628028	    134.74271015	   -179.99999979	    726.83030137	   -320.84851746	      9.11607221	    -20.11640957
      6.17000000	     38.31805345	      6.28243794	      9.30539998	    -74.38291612	    768.58134907	     11.37158714	     17.32601635	     38.37795864	     45.00000000	     39.79969123	    -26.45219245	  -2961.88729407	  -4074.90977971	    145.10468379	    179.99999979	   1446.49425616	     50.47320946	     20.90205887	     13.10490344	      4.95328977	    -45.00000000	    -45.00000000	     45.00000000	    -27.91897884	    803.92230081	  -2978.40778191	    134.50294735	   -179.99999979	    726.78613800	   -321.04149288	      9.00724220	    -20.16765854
      6.18000000	     38.24519075	      6.25658447	      9.26094846	    -75.21861332	    768.50723188	     11.30225517	     17.33484064	     38.40169206	     45.00000000	     39.76155336	    -26.55407421	  -2962.01103098	  -4074.93833017	    144.94545485	    179.99999979	   1446.51794136	     50.53626892	     20.91768513	     13.10015853	      4.98255962	    -45.00000000	    -45.00000000	     45.00000000	    -27.93812485	    804.13045611	  -2978.35713743	    134.34343283	   -179.99999979	    726.71858757	   -321.14987367	      9.07593044	    -20.09769540
      6.19000000	     38.21342225	      6.37832257	      9.36792922	    -76.09125872	    768.44366794	     11.23260874	     17.30919740	     38.34610761	     45.00000000	     39.84986820	    -26.71365913	  -2961.90090936	  -4074.92381771	    145.13929859	    179.99999979	   1446.65132867	     50.54322742	     21.00813881	     13.11300470	      4.97903353	    -45.00000000	    -45.00000000	     45.00000000	    -28.06042128	    804.08900520	  -2978.38800521	    134.55947489	   -179.99999979	    726.77143875	   -321.28004997	      9.06717312	    -20.17406831
